/* XPM */
/*
 * Copyright (C) 1997 Yuuichi Teranishi <teranisi@isl.ntt.co.jp> 
 * Copyright (C) 1997 Kazu Yamamoto <kazu@Mew.org>
 * Copyright notice is the same as Mew's one.
 */
static char * mew_yank_xpm[] = {
"24 24 4 1",
" 	s backgroundToolBarColor	c None",
".	c black",
"X	c white",
"o	c Gray60",
"                        ",
"                        ",
"...................     ",
".XXXXXXXXXXXXXXXXX.     ",
".XXXXXXXXXXXX...XX.     ",
".XXXXXXXXXXXX.o.XX.     ",
".XXX.......XX...XX..... ",
".XXXXXXXXXXXXXXXXX.XXX. ",
".XXX.......XXX.XXX.XXX. ",
".XXXXXXXXXXXX.X.XX.XXX. ",
".X.XXXXXXXXXXX.XXX.XXX.o",
".X.XXXXXXXXXXXXXXX.XXX.o",
"...................XXX.o",
" o.oo.XXXXXXXXXXXXXXXX.o",
"  .  .X.XXXXX......XXX.o",
"  .  .X..XXXXXXXXXXXXX.o",
"  ........XXX......XXX.o",
"     .X..XXXXXXXXXX....o",
"     .X.XXXXX.......X.o ",
"     .XXXXXXXXXXXXX..o  ",
"     ...............o   ",
"      oooooooooooooo    ",
"                        ",
"                        "};
