/* XPM */
/*
 * Copyright (C) 1997 Yoshiaki Kasahara <kasahara@nc.kyushu-u.ac.jp>
 * Copyright (C) 1997 Kazu Yamamoto <kazu@Mew.org>
 * Copyright notice is the same as Mew's one.
 */
static char * mew_OctetStream_xpm[] = {
"28 28 8 1",
" 	s backgroundToolBarColor	c None",
".	c black",
"X	c lightcyan",
"o	c gray90",
"O	c gray25",
"+	c gray50",
"@	c gold",
"#	c white",
"                            ",
" ........................   ",
" .XXXXXXXXXXXXXXXXXXXXXX.   ",
" .XXXXXXXooooooooXXXXXXX... ",
" .XX..O..++++++++..oXXXX... ",
" .XX..O..+++++..+...oXXX... ",
" .XX..O..+++++..+.@..oXX... ",
" .XX..O..+++++..+....+oX... ",
" .XX..O..+++++..+.@@.++X... ",
" .XX..OOO++++++++....++X... ",
" .XX.................++X... ",
" .XX.................++X... ",
" .XX..#############..++X... ",
" .XX..#############..++X... ",
" .XX..#############..++X... ",
" .XX..#############..++X... ",
" .XX..#############..++X... ",
" .XX..#############..++X... ",
" .XX..#############..++X... ",
" .XX..#############..++X... ",
" .XX..#############..++X... ",
" .XXXX+++++++++++++++++X... ",
" .XXXX+++++++++++++++++X... ",
" .XXXXXXXXXXXXXXXXXXXXXX... ",
" .......................... ",
"   ........................ ",
"   ........................ ",
"                            "};
