/* XPM */
/*
 * Copyright (C) 1997 Yuuichi Teranishi <teranisi@isl.ntt.co.jp> 
 * Copyright (C) 1997 Kazu Yamamoto <kazu@Mew.org>
 * Copyright notice is the same as Mew's one.
 */
static char * mew_attach_xpm[] = {
"24 24 4 1",
" 	s backgroundToolBarColor	c None",
".	c black",
"X	c white",
"o	c Gray60",
"                        ",
"..............          ",
".XXXXXXXXXXXX.          ",
".XXXXXXXXXXXX.          ",
".XX.. . . ..X.          ",
".XXXXXXXXXXXX.          ",
".XX.. ..............    ",
".XXXXX.            .    ",
".XX.. .  o         .    ",
".XXXXX.  o X.  ..  .    ",
".XXXXX. XooX. .XX. .    ",
"....... Xoo.............",
" ooooo. Xoo.oo.ooooo.oo.",
"      . ....oo..ooo..oo.",
"      .    .oo.X...X.oo.",
"      .    .oo.XXXXX.oo.",
"      ......oo.X.X.X.oo.",
"           .o.XX.X.XX.o.",
"           .oo.XX.XX.oo.",
"           .ooo.....ooo.",
"           .oo.XXXXX.oo.",
"           .............",
"                        ",
"                        "};
