/* XPM */
/*
 * Copyright (C) 1997 Yoshiaki Kasahara <kasahara@nc.kyushu-u.ac.jp>
 * Copyright (C) 1997 Kazu Yamamoto <kazu@Mew.org>
 * Copyright notice is the same as Mew's one.
 */
static char * mew_Text_xpm[] = {
"28 28 4 1",
" 	s backgroundToolBarColor	c None",
".	c black",
"X	c lightcyan",
"o	c gray50",
"                            ",
" ........................   ",
" .XXXXXXXXXXXXXXXXXXXXXX.   ",
" .XXXX XXXXXXXXXXXXXXXXX... ",
" .XXXX.XXXXXXXXXXXXXXXXX... ",
" .XXX . XXX..X.......XXX... ",
" .XXXo oXXXXXXXXXXXXXXXX... ",
" .XXX.X.XXX.....X..X..XX... ",
" .XX ... XXXXXXXXXXXXXXX... ",
" .XX. X .XX...X.X.....XX... ",
" .X...X...XXXXXXXXXXXXXX... ",
" .XXXXXXXXX....X.XXXXXXX... ",
" .XXXXXXXXXXXXXXXXXXXXXX... ",
" .XXX.......X...X.X...XX... ",
" .XXXXXXXXXXXXXXXXXXXXXX... ",
" .XX...X..X...X......XXX... ",
" .XXXXXXXXXXXXXXXXXXXXXX... ",
" .XX.......X.X...X....XX... ",
" .XXXXXXXXXXXXXXXXXXXXXX... ",
" .XXX...X..X.XXXXXXXXXXX... ",
" .XXXXXXXXXXXXXXXXXXXXXX... ",
" .XXX.........X..X....XX... ",
" .XXXXXXXXXXXXXXXXXXXXXX... ",
" .XXXXXXXXXXXXXXXXXXXXXX... ",
" .......................... ",
"   ........................ ",
"   ........................ ",
"                            "};
